<svg width="25" height="22" viewBox="0 0 25 22" fill="none" xmlns="http://www.w3.org/2000/svg">
    <path d="M7.43767 16.7806C6.38913 16.727 6.40887 15.2522 7.43762 15.201C10.3517 15.2111 18.038 15.2037 21.0448 15.2058C21.8672 15.2058 22.5708 14.6462 22.7557 13.8449L24.4631 6.45157C24.5609 6.02825 24.4622 5.59011 24.1924 5.24957C23.9227 4.90903 23.5188 4.71097 23.0844 4.71097C21.8748 4.71097 11.6072 4.66449 6.34819 4.64353L5.51454 1.55034C5.31442 0.811149 4.63986 0.294922 3.87407 0.294922H1.2035C0.81498 0.294922 0.5 0.609902 0.5 0.998421C0.5 1.38694 0.81498 1.70192 1.2035 1.70192H3.87407C3.9382 1.70198 4.00053 1.72308 4.05151 1.76199C4.10249 1.80089 4.13929 1.85545 4.15627 1.91728L7.35789 13.7959C6.79495 13.8164 6.27061 14.0453 5.87299 14.4488C5.45521 14.8727 5.23084 15.4339 5.24121 16.029C5.26194 17.2192 6.24726 18.1875 7.43767 18.1875H8.46346C8.30638 18.5171 8.22504 18.8777 8.2254 19.2428C8.2254 20.6006 9.32999 21.7052 10.6877 21.7052C12.0455 21.7052 13.1501 20.6006 13.1501 19.2428C13.1504 18.8777 13.0691 18.5171 12.912 18.1875H17.3541C17.1972 18.517 17.1159 18.8775 17.1162 19.2424C17.1162 20.6002 18.2208 21.7048 19.5786 21.7048C20.9363 21.7048 22.0409 20.6001 22.0409 19.2424C22.0412 18.8635 21.9535 18.4896 21.7847 18.1504C22.0631 18.0566 22.2638 17.794 22.2638 17.4841C22.2638 17.0955 21.9488 16.7806 21.5603 16.7806H7.43767ZM11.743 19.2429C11.743 19.8248 11.2696 20.2982 10.6877 20.2982C10.1058 20.2982 9.63235 19.8248 9.63235 19.2429C9.63235 18.6613 10.1053 18.188 10.6868 18.1876H10.6886C11.2701 18.188 11.743 18.6613 11.743 19.2429ZM19.5786 20.2978C18.9967 20.2978 18.5233 19.8244 18.5233 19.2425C18.5233 18.6663 18.9875 18.1968 19.5615 18.1876H19.5958C20.1698 18.1968 20.634 18.6663 20.634 19.2425C20.634 19.8244 20.1605 20.2978 19.5786 20.2978ZM23.0787 6.11783L21.3848 13.5283L8.74027 13.5183L6.72789 6.05193L23.0787 6.11783Z" fill="#F44849"/>
</svg>


