<svg width="24" height="24" viewBox="0 0 24 24" fill="none" xmlns="http://www.w3.org/2000/svg">
    <path d="M18.126 14.269C16.4579 14.269 15.1008 15.626 15.1008 17.2942C15.1008 18.9623 16.4579 20.3194 18.126 20.3194C19.7944 20.3194 21.1512 18.9623 21.1512 17.2942C21.1512 15.626 19.7941 14.269 18.126 14.269ZM18.126 18.8068C17.2918 18.8068 16.6134 18.1284 16.6134 17.2942C16.6134 16.46 17.2918 15.7816 18.126 15.7816C18.9602 15.7816 19.6386 16.46 19.6386 17.2942C19.6386 18.1284 18.9602 18.8068 18.126 18.8068ZM7.78987 14.269C6.12173 14.269 4.76465 15.626 4.76465 17.2942C4.76465 18.9623 6.12173 20.3194 7.78987 20.3194C9.45801 20.3194 10.8151 18.9623 10.8151 17.2942C10.8151 15.626 9.45801 14.269 7.78987 14.269ZM7.78987 18.8068C6.95568 18.8068 6.27726 18.1284 6.27726 17.2942C6.27726 16.46 6.95568 15.7816 7.78987 15.7816C8.62382 15.7816 9.30248 16.46 9.30248 17.2942C9.30248 18.1284 8.62405 18.8068 7.78987 18.8068ZM20.1632 5.60984C20.1002 5.48463 20.0036 5.37938 19.8843 5.30584C19.7649 5.23231 19.6275 5.19336 19.4873 5.19336H15.5041V6.70597H19.0209L21.0803 10.8021L22.4321 10.1224L20.1632 5.60984Z" fill="#FF7F37"/>
    <path d="M10.1345 16.564H15.8572V18.0766H10.1345V16.564ZM5.52098 16.564H2.89917C2.48142 16.564 2.14289 16.9026 2.14289 17.3203C2.14289 17.738 2.48147 18.0766 2.89917 18.0766H5.52103C5.93878 18.0766 6.27731 17.738 6.27731 17.3203C6.27731 16.9025 5.93873 16.564 5.52098 16.564ZM23.8412 11.9405L22.3536 10.0245C22.2829 9.93339 22.1924 9.85968 22.0889 9.80899C21.9853 9.7583 21.8716 9.73197 21.7563 9.73203H16.2605V4.43792C16.2605 4.02017 15.9219 3.68164 15.5042 3.68164H2.89917C2.48142 3.68164 2.14289 4.02022 2.14289 4.43792C2.14289 4.85562 2.48147 5.1942 2.89917 5.1942H14.7479V10.4883C14.7479 10.9061 15.0865 11.2446 15.5042 11.2446H21.386L22.4874 12.6634V16.5639H20.3949C19.9772 16.5639 19.6387 16.9025 19.6387 17.3202C19.6387 17.738 19.9772 18.0765 20.3949 18.0765H23.2437C23.6614 18.0765 24 17.7379 24 17.3202V12.4043C24 12.2364 23.944 12.0731 23.8412 11.9405ZM5.47059 12.7321H1.99158C1.57383 12.7321 1.2353 13.0707 1.2353 13.4884C1.2353 13.9061 1.57387 14.2446 1.99158 14.2446H5.47055C5.8883 14.2446 6.22683 13.9061 6.22683 13.4884C6.22688 13.0707 5.8883 12.7321 5.47059 12.7321ZM7.21008 9.75725H0.756281C0.338578 9.75725 0 10.0958 0 10.5136C0 10.9313 0.338578 11.2699 0.756281 11.2699H7.21008C7.62783 11.2699 7.96636 10.9313 7.96636 10.5136C7.96636 10.0959 7.62783 9.75725 7.21008 9.75725Z" fill="#FF7F37"/>
    <path d="M8.44543 6.7832H1.99163C1.57388 6.7832 1.23535 7.12178 1.23535 7.53948C1.23535 7.95723 1.57393 8.29577 1.99163 8.29577H8.44543C8.86318 8.29577 9.20171 7.95719 9.20171 7.53948C9.20176 7.12178 8.86318 6.7832 8.44543 6.7832Z" fill="#FF7F37"/>
</svg>
