<svg width="40" height="40" viewBox="0 0 40 40" fill="none" xmlns="http://www.w3.org/2000/svg">
    <rect x="1.5" y="1.5" width="37" height="37" rx="18.5" fill="#F44849"/>
    <path d="M21.2601 11.5992L13.0501 20.2892C12.7401 20.6192 12.4401 21.2692 12.3801 21.7192L12.0101 24.9592C11.8801 26.1292 12.7201 26.9292 13.8801 26.7292L17.1001 26.1792C17.5501 26.0992 18.1801 25.7692 18.4901 25.4292L26.7001 16.7392C28.1201 15.2392 28.7601 13.5292 26.5501 11.4392C24.3501 9.36924 22.6801 10.0992 21.2601 11.5992Z" stroke="white" stroke-width="1.5" stroke-miterlimit="10" stroke-linecap="round" stroke-linejoin="round"/>
    <path d="M19.8899 13.0508C20.3199 15.8108 22.5599 17.9208 25.3399 18.2008" stroke="white" stroke-width="1.5" stroke-miterlimit="10" stroke-linecap="round" stroke-linejoin="round"/>
    <path d="M11 30H29" stroke="white" stroke-width="1.5" stroke-miterlimit="10" stroke-linecap="round" stroke-linejoin="round"/>
    <rect x="1.5" y="1.5" width="37" height="37" rx="18.5" stroke="white" stroke-width="3"/>
</svg>
